<svg width="147" height="34" viewBox="0 0 147 34" fill="none" xmlns="http://www.w3.org/2000/svg">
<path d="M21.56 5.28L20.92 10.32H14.08V33H7.52V10.32H0.36V5.28H21.56ZM38.9694 26.84C38.9694 27.64 39.076 28.2267 39.2894 28.6C39.5294 28.9733 39.9027 29.2533 40.4094 29.44L39.0894 33.56C37.7827 33.4533 36.716 33.1733 35.8894 32.72C35.0627 32.24 34.4227 31.4933 33.9694 30.48C32.5827 32.6133 30.4494 33.68 27.5694 33.68C25.4627 33.68 23.7827 33.0667 22.5294 31.84C21.276 30.6133 20.6494 29.0133 20.6494 27.04C20.6494 24.72 21.5027 22.9467 23.2094 21.72C24.916 20.4933 27.3827 19.88 30.6094 19.88H32.7694V18.96C32.7694 17.7067 32.5027 16.8533 31.9694 16.4C31.436 15.92 30.5027 15.68 29.1694 15.68C28.476 15.68 27.636 15.7867 26.6494 16C25.6627 16.1867 24.6494 16.4533 23.6094 16.8L22.1694 12.64C23.5027 12.1333 24.8627 11.7467 26.2494 11.48C27.6627 11.2133 28.9694 11.08 30.1694 11.08C33.2094 11.08 35.436 11.7067 36.8494 12.96C38.2627 14.2133 38.9694 16.0933 38.9694 18.6V26.84ZM29.4094 29.16C30.8494 29.16 31.9694 28.48 32.7694 27.12V23.36H31.2094C29.7694 23.36 28.6894 23.6133 27.9694 24.12C27.276 24.6267 26.9294 25.4133 26.9294 26.48C26.9294 27.3333 27.1427 28 27.5694 28.48C28.0227 28.9333 28.636 29.16 29.4094 29.16ZM49.2528 33.68C47.4128 33.68 45.9728 33.16 44.9328 32.12C43.9195 31.0533 43.4128 29.5467 43.4128 27.6V3.32L49.7328 2.64V27.36C49.7328 28.24 50.0928 28.68 50.8128 28.68C51.1861 28.68 51.5328 28.6133 51.8528 28.48L53.0928 32.96C51.9461 33.44 50.6661 33.68 49.2528 33.68ZM61.8078 11.76V33H55.4878V11.76H61.8078ZM58.6078 0.559998C59.7011 0.559998 60.5945 0.906665 61.2878 1.6C62.0078 2.26666 62.3678 3.12 62.3678 4.16C62.3678 5.2 62.0078 6.06667 61.2878 6.76C60.5945 7.42667 59.7011 7.76 58.6078 7.76C57.5145 7.76 56.6211 7.42667 55.9278 6.76C55.2345 6.06667 54.8878 5.2 54.8878 4.16C54.8878 3.12 55.2345 2.26666 55.9278 1.6C56.6211 0.906665 57.5145 0.559998 58.6078 0.559998ZM74.2569 11.08C75.7769 11.08 77.2035 11.3067 78.5369 11.76C79.8702 12.2133 81.0435 12.8533 82.0569 13.68L79.7369 17.24C78.0035 16.1467 76.2569 15.6 74.4969 15.6C73.6702 15.6 73.0302 15.7467 72.5769 16.04C72.1502 16.3067 71.9369 16.6933 71.9369 17.2C71.9369 17.6 72.0302 17.9333 72.2169 18.2C72.4302 18.44 72.8435 18.6933 73.4569 18.96C74.0702 19.2267 75.0169 19.5467 76.2969 19.92C78.5102 20.56 80.1502 21.4 81.2169 22.44C82.3102 23.4533 82.8569 24.8667 82.8569 26.68C82.8569 28.12 82.4435 29.3733 81.6169 30.44C80.7902 31.48 79.6569 32.28 78.2169 32.84C76.7769 33.4 75.1769 33.68 73.4169 33.68C71.6302 33.68 69.9635 33.4 68.4169 32.84C66.8969 32.28 65.6035 31.5067 64.5369 30.52L67.6169 27.08C69.4035 28.4667 71.2835 29.16 73.2569 29.16C74.2169 29.16 74.9635 28.9867 75.4969 28.64C76.0569 28.2933 76.3369 27.8 76.3369 27.16C76.3369 26.6533 76.2302 26.2533 76.0169 25.96C75.8035 25.6667 75.3902 25.4 74.7769 25.16C74.1635 24.8933 73.1902 24.5733 71.8569 24.2C69.7502 23.5867 68.1769 22.7333 67.1369 21.64C66.0969 20.5467 65.5769 19.1867 65.5769 17.56C65.5769 16.3333 65.9235 15.24 66.6169 14.28C67.3369 13.2933 68.3502 12.52 69.6569 11.96C70.9902 11.3733 72.5235 11.08 74.2569 11.08ZM93.3194 11.08C94.8394 11.08 96.266 11.3067 97.5994 11.76C98.9327 12.2133 100.106 12.8533 101.119 13.68L98.7994 17.24C97.066 16.1467 95.3194 15.6 93.5594 15.6C92.7327 15.6 92.0927 15.7467 91.6394 16.04C91.2127 16.3067 90.9994 16.6933 90.9994 17.2C90.9994 17.6 91.0927 17.9333 91.2794 18.2C91.4927 18.44 91.906 18.6933 92.5194 18.96C93.1327 19.2267 94.0794 19.5467 95.3594 19.92C97.5727 20.56 99.2127 21.4 100.279 22.44C101.373 23.4533 101.919 24.8667 101.919 26.68C101.919 28.12 101.506 29.3733 100.679 30.44C99.8527 31.48 98.7194 32.28 97.2794 32.84C95.8394 33.4 94.2394 33.68 92.4794 33.68C90.6927 33.68 89.026 33.4 87.4794 32.84C85.9594 32.28 84.666 31.5067 83.5994 30.52L86.6794 27.08C88.466 28.4667 90.346 29.16 92.3194 29.16C93.2794 29.16 94.026 28.9867 94.5594 28.64C95.1194 28.2933 95.3994 27.8 95.3994 27.16C95.3994 26.6533 95.2927 26.2533 95.0794 25.96C94.866 25.6667 94.4527 25.4 93.8394 25.16C93.226 24.8933 92.2527 24.5733 90.9194 24.2C88.8127 23.5867 87.2394 22.7333 86.1994 21.64C85.1594 20.5467 84.6394 19.1867 84.6394 17.56C84.6394 16.3333 84.986 15.24 85.6794 14.28C86.3994 13.2933 87.4127 12.52 88.7194 11.96C90.0527 11.3733 91.586 11.08 93.3194 11.08ZM114.375 11.08C117.629 11.08 120.175 12.08 122.015 14.08C123.855 16.0533 124.775 18.8267 124.775 22.4C124.775 24.6667 124.349 26.6533 123.495 28.36C122.669 30.04 121.469 31.3467 119.895 32.28C118.349 33.2133 116.509 33.68 114.375 33.68C111.149 33.68 108.602 32.6933 106.735 30.72C104.895 28.72 103.975 25.9333 103.975 22.36C103.975 20.0933 104.389 18.12 105.215 16.44C106.069 14.7333 107.269 13.4133 108.815 12.48C110.389 11.5467 112.242 11.08 114.375 11.08ZM114.375 15.72C113.095 15.72 112.135 16.2667 111.495 17.36C110.855 18.4267 110.535 20.0933 110.535 22.36C110.535 24.68 110.842 26.3733 111.455 27.44C112.095 28.5067 113.069 29.04 114.375 29.04C115.655 29.04 116.615 28.5067 117.255 27.44C117.895 26.3467 118.215 24.6667 118.215 22.4C118.215 20.08 117.895 18.3867 117.255 17.32C116.642 16.2533 115.682 15.72 114.375 15.72ZM140.975 11.08C142.815 11.08 144.255 11.64 145.295 12.76C146.335 13.88 146.855 15.4533 146.855 17.48V33H140.535V18.56C140.535 17.4933 140.361 16.76 140.015 16.36C139.695 15.9333 139.201 15.72 138.535 15.72C137.255 15.72 136.028 16.64 134.855 18.48V33H128.535V11.76H134.055L134.495 14.28C135.401 13.2133 136.375 12.4133 137.415 11.88C138.481 11.3467 139.668 11.08 140.975 11.08Z" fill="#141414"/>
</svg>
