<svg width="118" height="27" viewBox="0 0 118 27" fill="none" xmlns="http://www.w3.org/2000/svg">
<path d="M17.248 3.824L16.736 7.856H11.264V26H6.016V7.856H0.288V3.824H17.248ZM31.1755 21.072C31.1755 21.712 31.2608 22.1813 31.4315 22.48C31.6235 22.7787 31.9222 23.0027 32.3275 23.152L31.2715 26.448C30.2262 26.3627 29.3728 26.1387 28.7115 25.776C28.0502 25.392 27.5382 24.7947 27.1755 23.984C26.0662 25.6907 24.3595 26.544 22.0555 26.544C20.3702 26.544 19.0262 26.0533 18.0235 25.072C17.0208 24.0907 16.5195 22.8107 16.5195 21.232C16.5195 19.376 17.2022 17.9573 18.5675 16.976C19.9328 15.9947 21.9062 15.504 24.4875 15.504H26.2155V14.768C26.2155 13.7653 26.0022 13.0827 25.5755 12.72C25.1488 12.336 24.4022 12.144 23.3355 12.144C22.7808 12.144 22.1088 12.2293 21.3195 12.4C20.5302 12.5493 19.7195 12.7627 18.8875 13.04L17.7355 9.712C18.8022 9.30667 19.8902 8.99733 20.9995 8.784C22.1302 8.57067 23.1755 8.464 24.1355 8.464C26.5675 8.464 28.3488 8.96533 29.4795 9.968C30.6102 10.9707 31.1755 12.4747 31.1755 14.48V21.072ZM23.5275 22.928C24.6795 22.928 25.5755 22.384 26.2155 21.296V18.288H24.9675C23.8155 18.288 22.9515 18.4907 22.3755 18.896C21.8208 19.3013 21.5435 19.9307 21.5435 20.784C21.5435 21.4667 21.7142 22 22.0555 22.384C22.4182 22.7467 22.9088 22.928 23.5275 22.928ZM39.4023 26.544C37.9303 26.544 36.7783 26.128 35.9463 25.296C35.1356 24.4427 34.7303 23.2373 34.7303 21.68V2.256L39.7863 1.712V21.488C39.7863 22.192 40.0743 22.544 40.6503 22.544C40.9489 22.544 41.2263 22.4907 41.4823 22.384L42.4743 25.968C41.5569 26.352 40.5329 26.544 39.4023 26.544ZM49.4463 9.008V26H44.3903V9.008H49.4463ZM46.8863 0.0479984C47.7609 0.0479984 48.4756 0.325332 49.0303 0.879999C49.6063 1.41333 49.8943 2.096 49.8943 2.928C49.8943 3.76 49.6063 4.45333 49.0303 5.008C48.4756 5.54133 47.7609 5.808 46.8863 5.808C46.0116 5.808 45.2969 5.54133 44.7423 5.008C44.1876 4.45333 43.9103 3.76 43.9103 2.928C43.9103 2.096 44.1876 1.41333 44.7423 0.879999C45.2969 0.325332 46.0116 0.0479984 46.8863 0.0479984ZM59.4055 8.464C60.6215 8.464 61.7628 8.64533 62.8295 9.008C63.8962 9.37067 64.8348 9.88267 65.6455 10.544L63.7895 13.392C62.4028 12.5173 61.0055 12.08 59.5975 12.08C58.9362 12.08 58.4242 12.1973 58.0615 12.432C57.7202 12.6453 57.5495 12.9547 57.5495 13.36C57.5495 13.68 57.6242 13.9467 57.7735 14.16C57.9442 14.352 58.2748 14.5547 58.7655 14.768C59.2562 14.9813 60.0135 15.2373 61.0375 15.536C62.8082 16.048 64.1202 16.72 64.9735 17.552C65.8482 18.3627 66.2855 19.4933 66.2855 20.944C66.2855 22.096 65.9548 23.0987 65.2935 23.952C64.6322 24.784 63.7255 25.424 62.5735 25.872C61.4215 26.32 60.1415 26.544 58.7335 26.544C57.3042 26.544 55.9708 26.32 54.7335 25.872C53.5175 25.424 52.4828 24.8053 51.6295 24.016L54.0935 21.264C55.5228 22.3733 57.0268 22.928 58.6055 22.928C59.3735 22.928 59.9708 22.7893 60.3975 22.512C60.8455 22.2347 61.0695 21.84 61.0695 21.328C61.0695 20.9227 60.9842 20.6027 60.8135 20.368C60.6428 20.1333 60.3122 19.92 59.8215 19.728C59.3308 19.5147 58.5522 19.2587 57.4855 18.96C55.8002 18.4693 54.5415 17.7867 53.7095 16.912C52.8775 16.0373 52.4615 14.9493 52.4615 13.648C52.4615 12.6667 52.7388 11.792 53.2935 11.024C53.8695 10.2347 54.6802 9.616 55.7255 9.168C56.7922 8.69867 58.0188 8.464 59.4055 8.464ZM74.6555 8.464C75.8715 8.464 77.0128 8.64533 78.0795 9.008C79.1462 9.37067 80.0848 9.88267 80.8955 10.544L79.0395 13.392C77.6528 12.5173 76.2555 12.08 74.8475 12.08C74.1862 12.08 73.6742 12.1973 73.3115 12.432C72.9702 12.6453 72.7995 12.9547 72.7995 13.36C72.7995 13.68 72.8742 13.9467 73.0235 14.16C73.1942 14.352 73.5248 14.5547 74.0155 14.768C74.5062 14.9813 75.2635 15.2373 76.2875 15.536C78.0582 16.048 79.3702 16.72 80.2235 17.552C81.0982 18.3627 81.5355 19.4933 81.5355 20.944C81.5355 22.096 81.2048 23.0987 80.5435 23.952C79.8822 24.784 78.9755 25.424 77.8235 25.872C76.6715 26.32 75.3915 26.544 73.9835 26.544C72.5542 26.544 71.2208 26.32 69.9835 25.872C68.7675 25.424 67.7328 24.8053 66.8795 24.016L69.3435 21.264C70.7728 22.3733 72.2768 22.928 73.8555 22.928C74.6235 22.928 75.2208 22.7893 75.6475 22.512C76.0955 22.2347 76.3195 21.84 76.3195 21.328C76.3195 20.9227 76.2342 20.6027 76.0635 20.368C75.8928 20.1333 75.5622 19.92 75.0715 19.728C74.5808 19.5147 73.8022 19.2587 72.7355 18.96C71.0502 18.4693 69.7915 17.7867 68.9595 16.912C68.1275 16.0373 67.7115 14.9493 67.7115 13.648C67.7115 12.6667 67.9888 11.792 68.5435 11.024C69.1195 10.2347 69.9302 9.616 70.9755 9.168C72.0422 8.69867 73.2688 8.464 74.6555 8.464ZM91.5003 8.464C94.1029 8.464 96.1403 9.264 97.6123 10.864C99.0843 12.4427 99.8203 14.6613 99.8203 17.52C99.8203 19.3333 99.4789 20.9227 98.7963 22.288C98.1349 23.632 97.1749 24.6773 95.9163 25.424C94.6789 26.1707 93.2069 26.544 91.5003 26.544C88.9189 26.544 86.8816 25.7547 85.3883 24.176C83.9163 22.576 83.1803 20.3467 83.1803 17.488C83.1803 15.6747 83.5109 14.096 84.1723 12.752C84.8549 11.3867 85.8149 10.3307 87.0523 9.584C88.3109 8.83733 89.7936 8.464 91.5003 8.464ZM91.5003 12.176C90.4763 12.176 89.7083 12.6133 89.1963 13.488C88.6843 14.3413 88.4283 15.6747 88.4283 17.488C88.4283 19.344 88.6736 20.6987 89.1643 21.552C89.6763 22.4053 90.4549 22.832 91.5003 22.832C92.5243 22.832 93.2923 22.4053 93.8043 21.552C94.3163 20.6773 94.5723 19.3333 94.5723 17.52C94.5723 15.664 94.3163 14.3093 93.8043 13.456C93.3136 12.6027 92.5456 12.176 91.5003 12.176ZM112.78 8.464C114.252 8.464 115.404 8.912 116.236 9.808C117.068 10.704 117.484 11.9627 117.484 13.584V26H112.428V14.448C112.428 13.5947 112.289 13.008 112.012 12.688C111.756 12.3467 111.361 12.176 110.828 12.176C109.804 12.176 108.822 12.912 107.884 14.384V26H102.828V9.008H107.244L107.596 11.024C108.321 10.1707 109.1 9.53067 109.932 9.104C110.785 8.67733 111.734 8.464 112.78 8.464Z" fill="black"/>
</svg>
